<svg width="23" height="28" viewBox="0 0 23 28" fill="none" xmlns="http://www.w3.org/2000/svg">
<path d="M4.63942 23.7709C4.19871 21.9004 3.65384 20.0544 3.12499 18.2084C3.01281 17.818 2.90865 17.4277 2.80448 17.0373C2.70031 16.7852 2.81249 16.6388 3.05288 16.5982C3.6298 16.5006 4.19871 16.3786 4.75961 16.1834C5.05608 16.0777 5.21634 16.2403 5.33653 16.5168C5.67307 17.3219 5.93749 17.4358 6.77082 17.143C6.96313 17.078 7.14743 17.0129 7.34775 16.956C7.78044 16.8421 8.10897 16.9316 8.38942 17.3382C9.01442 18.2409 9.93589 18.5418 10.9776 18.493C11.5785 18.4686 12.0593 18.1758 12.4279 17.696C12.516 17.574 12.5961 17.4439 12.6763 17.3138C13.3013 16.2891 13.7019 16.1509 14.8397 16.5982C15.1042 16.7039 15.3686 16.8015 15.641 16.8828C16.3942 17.1105 17.0913 16.9722 17.7404 16.525C17.9487 16.3786 18.133 16.2078 18.3173 16.037C18.4375 15.9232 18.5977 15.7524 18.742 15.8337C18.9263 15.9313 18.8542 16.1509 18.7901 16.3298C18.5096 18.1026 18.0929 19.8592 17.8686 21.6402C17.9487 22.4697 17.6843 23.2423 17.476 24.0148C17.4279 24.1938 17.2516 24.3076 17.0913 24.4052C16.7628 24.6085 16.4183 24.7712 16.0417 24.885C14.7516 25.2754 13.4375 25.4624 12.0994 25.4868C10.2324 25.5112 8.36538 25.5031 6.52243 25.0802C6.0657 24.9745 5.60897 24.8606 5.1923 24.641C4.86377 24.454 4.55127 24.2426 4.63942 23.7709Z" fill="#F16B83"/>
<path d="M18.4776 11.5479C18.774 12.0765 19.1987 12.5157 19.359 13.1581C19.4712 13.6135 19.4151 13.9958 19.2869 14.4105C19.1026 14.256 19.1506 14.0445 19.1346 13.8738C19.0865 14.2153 18.8862 14.5162 18.6939 14.8171C18.4936 15.1261 18.3413 15.4921 18.125 15.7605C17.7244 16.2484 17.2035 16.6388 16.5305 16.6957C15.8494 16.7526 15.2083 16.6388 14.5753 16.3541C13.5817 15.9069 13.3253 16.0126 12.7484 16.9641C11.9551 18.2734 10.8173 18.5661 9.49519 17.8017C9.15865 17.6065 8.85417 17.3625 8.59776 17.0698C8.30128 16.7364 7.97276 16.655 7.5641 16.8177C7.26763 16.9315 6.96314 17.0291 6.63462 16.9641C6.17789 16.8827 5.84135 16.6225 5.61699 16.2159C5.42468 15.8662 5.16827 15.7767 4.82372 15.9475C4.20673 16.2565 3.53366 16.2891 2.86859 16.3379C2.66827 16.3541 2.46795 16.3135 2.27564 16.2647C1.9391 16.1752 1.61859 16.0207 1.54648 15.6466C1.46635 15.2481 1.69071 14.9635 2.01122 14.7602C2.24359 14.6138 2.45192 14.4837 2.21154 14.1828C2.28366 13.8087 2.02725 13.5159 1.99519 13.15C1.9391 12.4994 2.23558 12.0765 2.70032 11.735C2.8766 11.6048 3.02084 11.4503 3.19712 11.3365C3.56571 11.1006 3.62981 10.7753 3.6218 10.3769C3.59776 9.01063 4.20673 8.02661 5.44071 7.47361C5.92148 7.26217 6.34615 6.99381 6.73077 6.64412C7.01923 6.4652 7.16346 6.66038 7.27564 6.87995C7.42789 7.16459 7.53205 7.47361 7.71635 7.73385C8.11699 8.30311 8.6218 8.38444 9.17468 7.96156C9.44712 7.75825 9.71955 7.56307 10.0801 7.60373C10.2804 7.79891 10.0801 7.92089 9.96795 7.99408C9.73558 8.15673 9.81571 8.28685 9.95994 8.44136C9.71154 8.87238 9.25481 8.92117 8.83814 9.01876C8.03686 9.21394 7.20353 9.10821 6.39423 9.23833C6.01763 9.30339 5.63301 9.32779 5.2484 9.39285C4.86378 9.45791 4.55128 9.65308 4.44712 10.0597C4.35096 10.4419 4.6234 10.6615 4.85577 10.8729C5.4968 11.4503 6.29007 11.6618 7.09936 11.5886C8.20513 11.4829 9.33494 11.4097 10.4087 11.06C11.7628 10.6127 12.8926 9.90518 13.4375 8.46576C13.6859 7.81517 13.9583 7.18085 14.1506 6.50587C14.2067 6.29442 14.2228 6.00979 14.5593 6.02606C15.0721 6.36762 15.2805 6.91248 15.4808 7.46548C15.593 7.77451 15.649 8.11607 15.8654 8.3763C16.4824 8.86424 16.4744 8.86424 16.242 9.57989C16.0817 10.076 15.8013 10.4826 15.4407 10.8567C15.2564 11.0437 15 11.1982 15.0881 11.5317C14.9519 11.8569 14.4551 11.9057 14.4952 12.3612C14.2468 12.662 13.8942 12.8003 13.5817 13.0036C13.4455 12.9955 13.3894 13.0849 13.3333 13.1988C12.9087 14.0283 12.2035 14.0852 11.6186 13.3533C11.5946 13.3208 11.5705 13.2882 11.5465 13.2638C11.7548 13.5485 11.9792 13.8168 12.2676 14.0283C12.5481 14.2153 12.8526 14.1259 13.149 14.1177C13.5096 14.1096 13.8462 14.1421 14.1266 14.4024C14.2949 14.5569 14.5112 14.6138 14.7356 14.5813C16.242 14.3373 17.3558 13.394 17.3077 11.8082C17.2997 11.5886 17.2917 11.369 17.3397 11.1494C17.3958 10.9217 17.5 10.7672 17.7644 10.9217C17.8365 10.9868 17.9006 11.06 17.9728 11.125C18.5337 11.8407 18.3013 13.7518 17.2837 14.5C16.7708 14.8822 16.1859 15.1261 15.5769 15.4677C15.9615 15.7117 16.3622 15.7605 16.6987 15.6385C17.2035 15.4433 17.6683 15.1587 17.9808 14.6463C18.4936 13.8168 18.6779 12.9711 18.3093 12.044C18.2612 11.922 18.2372 11.7756 18.2452 11.6455C18.2452 11.5073 18.3413 11.4585 18.4776 11.5479Z" fill="#FCE2D8"/>
<path d="M4.63941 23.7709C4.95191 24.6492 5.77723 24.7143 6.47435 24.8688C9.12659 25.4462 11.8029 25.4543 14.4792 25.0802C15.2724 24.9664 16.0417 24.7387 16.7708 24.4053C17.2115 24.2019 17.4199 23.901 17.492 23.4131C17.5721 22.8194 17.6282 22.2014 17.8686 21.6403C17.9968 21.1848 18.3574 21.1523 18.75 21.0791C21.3164 20.6116 22.8445 21.3244 22.8445 22.9089C22.8445 23.8522 20.3333 25.0365 19.5 25.5C17.0881 26.8337 14.5 27 11.8295 27.2353C9.33911 27.4547 8.26922 27.3166 6.08973 27.2353C4.59134 27.1784 3.08493 26.9832 1.73877 26.2594C1.1939 25.9667 0.560887 25.6414 0.608964 24.7956C0.633003 24.4053 0.785247 24.0881 1.03364 23.8523C1.65864 23.2749 2.39582 22.8764 3.18909 22.5917C3.6939 22.4128 4.33974 22.4795 4.5 23C4.55609 23.1789 4.45512 23.6489 4.63941 23.7709Z" fill="#A2DADD"/>
<path d="M14.5753 6.04249C14.3029 6.18074 14.359 6.48163 14.2789 6.70934C13.8862 7.81534 13.6138 8.98639 12.7805 9.88095C12.1475 10.5559 11.3462 10.9463 10.4888 11.2472C9.87181 11.4586 9.23079 11.5237 8.59778 11.605C7.45996 11.7595 6.30611 11.9954 5.21637 11.3366C4.96797 11.1821 4.75162 11.0032 4.55931 10.7999C4.07053 10.2794 4.22278 9.61259 4.88784 9.33609C5.34457 9.14904 5.84137 9.1897 6.31412 9.10025C7.13143 8.94573 7.98079 9.05959 8.7981 8.88881C9.22278 8.79935 9.63944 8.70176 9.96797 8.3846C10.5689 7.83973 11.266 7.40059 11.9071 6.88012C12.0513 6.76627 12.1955 6.66055 12.3237 6.53856C13.0689 6.03436 13.0609 5.23739 13.0769 4.46481C13.085 4.25337 12.9648 4.0338 13.141 3.83862C13.2853 3.90368 13.3574 4.04193 13.3334 4.16392C13.1731 4.92022 13.75 5.22112 14.1907 5.59521C14.359 5.71719 14.4872 5.85544 14.5753 6.04249Z" fill="#FEEFE7"/>
<path d="M2.21957 14.191C2.37181 14.2235 2.58014 14.134 2.6122 14.3943C2.63623 14.5813 2.50803 14.6626 2.37181 14.744C2.28367 14.7928 2.21156 14.8659 2.1154 14.8985C1.77886 15.0205 1.63463 15.3214 1.65867 15.606C1.68271 15.9069 1.9872 16.0777 2.27566 16.1183C3.09297 16.2403 3.89425 16.1753 4.66348 15.8418C5.44072 15.5084 5.48079 15.606 5.76925 16.1671C6.08976 16.7852 6.65066 16.9966 7.2997 16.7283C7.94874 16.4518 8.42149 16.5331 8.87822 17.1023C9.28688 17.6147 9.8638 17.94 10.4968 18.0457C11.4023 18.2002 12.2516 17.7123 12.6442 16.8177C12.9888 16.0289 13.718 15.6548 14.5112 16.1346C15.1603 16.5331 15.8975 16.5737 16.6426 16.5412C16.9071 16.5331 17.0593 16.3704 17.2596 16.2403C18.2292 15.6141 18.718 14.6626 19.0144 13.5729C19.0385 13.4753 19.0705 13.3777 19.2148 13.3208C19.383 13.6705 19.2548 14.0446 19.3029 14.3943C19.351 14.6464 19.2148 14.8497 19.1026 15.0449C18.8702 15.4433 18.9664 15.9069 18.7981 16.3135C18.7901 16.1753 18.7821 16.0451 18.7741 15.8418C18.4696 16.1021 18.2051 16.346 17.9327 16.5656C17.1795 17.1755 16.3382 17.2812 15.4327 16.9722C15.0721 16.8502 14.7196 16.6876 14.351 16.5737C13.6218 16.3542 13.3253 16.4843 12.9567 17.1511C12.5882 17.818 12.1795 18.4035 11.3782 18.5906C10.2244 18.8589 8.85418 18.3547 8.21316 17.3463C8.02085 17.0454 7.8045 16.9722 7.50002 17.0698C7.1795 17.1674 6.87502 17.2975 6.5545 17.387C5.8013 17.5984 5.41668 17.3788 5.22438 16.6144C5.14425 16.2972 5.03207 16.1915 4.71957 16.346C4.23079 16.5819 3.70194 16.6795 3.17309 16.712C2.95675 16.7283 2.82053 16.7852 2.82854 17.0291C2.62021 16.5737 2.13143 16.6713 1.78688 16.5575C1.04168 16.3216 0.785273 15.2238 1.35418 14.8253C1.63463 14.6382 1.92309 14.4105 2.21957 14.191Z" fill="#F9CBC0"/>
<path d="M13.157 3.83044C13.2853 4.41597 13.2772 5.0015 13.157 5.58703C13.0529 6.07497 12.8365 6.47345 12.3638 6.68489C11.7468 6.96952 11.0737 6.78248 10.4327 6.90447C9.49519 6.76622 8.62179 5.67648 8.70192 4.70873C8.71794 4.55422 8.62179 4.37531 8.77403 4.23706C9.03846 3.62713 9.55128 3.30184 10.1122 3.00907C10.3445 2.88709 10.4407 2.98468 10.5208 3.17985C10.8013 3.19612 10.6731 2.84643 10.8654 2.77324C10.9054 2.74071 10.9455 2.70818 10.9856 2.66752C11.266 2.64312 11.4663 2.84643 11.6827 2.96841C11.9231 3.10666 11.8429 3.35063 11.7147 3.53768C11.4984 3.84671 11.1779 3.96869 10.8253 4.02562C11.6346 3.85484 11.8349 3.6434 11.899 2.82203C11.9391 2.36662 12.1394 2.5374 12.3478 2.67565C12.7244 2.99281 12.9888 3.37503 13.157 3.83044Z" fill="#ED3E6E"/>
<path d="M17.7724 10.9381C17.4679 10.9218 17.484 11.1333 17.476 11.3447C17.4599 11.7676 17.524 12.1823 17.4199 12.6052C17.0593 14.0528 15.8734 14.5732 14.6635 14.8009C14.4792 14.8335 14.2308 14.7847 14.1506 14.6627C13.782 14.1422 13.2612 14.3374 12.7885 14.2967C12.5641 14.2805 12.3077 14.3699 12.1635 14.1016C12.7724 13.8982 13.3173 13.6217 13.5737 12.9712C13.782 12.6296 14.1667 12.5401 14.4792 12.3531C14.9199 12.1661 15.0801 12.223 15.2003 12.5971C15.2564 12.7597 15.1843 13.0118 15.4407 13.0362C15.657 13.0525 15.7933 12.8736 15.9135 12.7191C15.9615 12.654 16.0016 12.5808 16.0417 12.4995C16.1218 11.6619 16.4263 10.8893 16.7548 10.1248C16.4583 10.7185 16.4583 11.5073 15.617 11.6944C15.4247 11.7025 15.2244 11.7188 15.0801 11.548C14.8237 11.5399 14.7276 11.4829 14.9279 11.2308C15.2484 10.8324 15.649 10.5071 15.9135 10.0517C16.0897 9.74262 16.1619 9.40106 16.2901 9.0839C16.4102 8.79114 15.9936 8.64476 15.8734 8.38452C16.7067 8.73421 17.1875 9.37667 17.3958 10.2468C17.4599 10.5233 17.5881 10.7429 17.7724 10.9381Z" fill="#FEF3E7"/>
<path d="M8.77404 4.229C8.48558 5.26181 9.5593 6.57925 10.3606 6.75816C10.5449 6.89641 10.8974 6.92081 10.7853 7.26237C10.6971 7.53887 10.4808 7.72591 10.1522 7.66898C9.79167 7.78284 9.44712 7.92109 9.15866 8.20572C8.71795 8.6286 7.9327 8.41716 7.55609 7.79097C7.39584 7.51447 7.25962 7.2217 7.14744 6.92081C7.06731 6.70124 6.93109 6.63618 6.73077 6.64431C7.20353 6.00999 7.69231 5.37566 8.3734 4.97718C8.72597 4.79014 8.51763 4.40792 8.77404 4.229Z" fill="#FEEFE7"/>
<path d="M18.4776 11.5479C18.3253 11.5723 18.2853 11.6374 18.3654 11.7919C19.0224 13.0442 18.5577 14.1421 17.8526 15.1831C17.476 15.7361 16.1298 16.0207 15.5128 15.7279C15.4167 15.6873 15.3125 15.6547 15.3125 15.5327C15.3125 15.362 15.4567 15.3213 15.5769 15.2725C16.1378 15.0529 16.6827 14.809 17.1554 14.4186C17.7244 13.9388 18.125 13.3695 18.0849 12.5644C18.0609 12.0928 18.2051 11.6048 17.9808 11.1494C18.1811 11.2307 18.3814 11.3283 18.4776 11.5479Z" fill="#FEF3E7"/>
<path d="M10.2484 2.18768C9.22274 2.0657 8.61377 1.42324 8.62979 0.488024C8.63781 0.0407457 8.78204 -0.0649747 9.23076 0.0407457C9.99999 0.219657 10.5048 0.975965 10.5208 1.96811C10.4327 2.03317 10.3445 2.11449 10.2484 2.18768Z" fill="#20B39B"/>
<path d="M12.3478 2.68366C12.2756 2.78125 12.0353 2.3665 12.0513 2.81378C12.0753 3.82219 11.3622 4.34266 10.2805 4.04989C10.4728 4.0011 10.6731 3.96044 10.8574 3.91164C11.1699 3.82219 11.4744 3.71647 11.6426 3.41557C11.7628 3.21226 11.7708 2.94389 11.4664 3.00895C11.1298 3.07401 11.0817 2.8707 10.9776 2.67553C11.3782 2.40716 12.0433 2.41529 12.3478 2.68366Z" fill="#F5D5D9"/>
<path d="M10.2484 2.18767C10.1683 1.88677 10.3285 1.90303 10.5288 1.96809C10.641 2.23646 10.7532 2.50483 10.8654 2.77319C10.8734 2.88705 10.8814 3.00903 10.8734 3.12289C10.8654 3.22047 10.8814 3.34246 10.7692 3.37499C10.633 3.40752 10.5849 3.26927 10.5208 3.17981C10.5449 2.81386 10.2965 2.52922 10.2484 2.18767Z" fill="#2A8F72"/>
<path d="M11.2981 21.3639C10.4888 21.3395 9.90385 20.9816 9.44712 20.3961C9.35898 20.2823 9.20673 20.1359 9.35898 19.9976C9.54327 19.8268 9.66347 20.0302 9.76763 20.144C10.0321 20.4124 10.2965 20.6645 10.6571 20.7865C11.4423 21.0467 12.0994 20.8027 12.6603 20.2253C12.7564 20.1277 12.8365 20.022 12.9247 19.9244C13.0128 19.835 13.125 19.7618 13.2372 19.8594C13.3734 19.9732 13.3013 20.1196 13.2372 20.2335C12.8926 20.8109 12.3878 21.1768 11.7388 21.3313C11.5785 21.3557 11.4103 21.3557 11.2981 21.3639Z" fill="#24111C"/>
<path d="M16.282 19.4607C16.266 19.6884 16.0978 19.6152 16.0016 19.5583C15.5288 19.2818 15.0962 19.3062 14.6635 19.6477C14.5593 19.729 14.399 19.786 14.3029 19.6477C14.1987 19.5176 14.3189 19.4037 14.407 19.298C14.7516 18.8914 15.5369 18.745 15.9615 19.0215C16.1138 19.1191 16.258 19.2411 16.282 19.4607Z" fill="#2F151E"/>
<path d="M7.23557 19.0054C7.59614 19.0542 7.94069 19.1355 8.18108 19.4201C8.25319 19.5014 8.34935 19.599 8.25319 19.7292C8.17307 19.8267 8.06089 19.8105 7.98076 19.7617C7.48396 19.4445 6.98717 19.4039 6.48236 19.7373C6.42627 19.7698 6.35416 19.7779 6.30608 19.7129C6.23396 19.6153 6.27403 19.5177 6.33012 19.4364C6.54646 19.103 6.89903 19.0704 7.23557 19.0054Z" fill="#3D1B26"/>
<path d="M6.31413 19.9813C6.47439 20.0382 6.73881 19.8837 6.7949 20.1032C6.85099 20.3228 6.61061 20.4285 6.44234 20.5343C6.28208 20.6237 6.12984 20.7376 5.93753 20.7213C5.72118 20.705 5.40868 20.8108 5.36061 20.4855C5.32054 20.209 5.60099 20.1032 5.81734 20.0382C5.96958 19.9894 6.14586 19.9975 6.31413 19.9813Z" fill="#FBD3CA"/>
<path d="M16.1378 19.7534C16.3061 19.7697 16.4583 19.7778 16.6026 19.8103C16.8269 19.8591 17.1234 19.9242 17.0673 20.2251C17.0112 20.5097 16.7147 20.4853 16.4904 20.4772C16.3462 20.4691 16.1939 20.4121 16.0657 20.3389C15.8814 20.2414 15.609 20.1438 15.6731 19.8998C15.7131 19.6802 15.9936 19.8429 16.1378 19.7534Z" fill="#FAD0CC"/>
<path d="M15.0721 11.5481C15.2724 11.5481 15.4648 11.5481 15.6651 11.5481C16.2099 11.6619 16.2981 11.8246 16.1699 12.5646C16.0817 12.7435 15.9856 12.9225 15.8253 13.0526C15.6571 13.199 15.4728 13.3453 15.2404 13.2478C15.0321 13.1583 15.0721 12.9306 15.0801 12.7517C15.1122 12.2312 14.7516 12.3695 14.4712 12.3532C14.2308 12.0442 14.4551 11.8734 14.6715 11.7189C14.7917 11.6376 14.9439 11.605 15.0721 11.5481Z" fill="#F29B9B"/>
<path d="M10.1522 7.677C10.1843 7.66073 10.2083 7.64447 10.2404 7.6282C10.7692 7.25411 10.7692 7.25411 10.3686 6.76617C11.0256 6.55473 11.6987 6.71738 12.3638 6.68485C11.5705 7.27038 10.8894 8.01855 9.95993 8.39264C9.80769 8.36011 9.61538 8.61221 9.51923 8.39264C9.44711 8.22186 9.6875 8.13241 9.79166 8.00229C9.88782 7.8803 10.0881 7.84777 10.1522 7.677Z" fill="#F9D8C8"/>
<path d="M4.91988 13.5811C4.82373 13.695 4.73559 13.817 4.62341 13.9146C4.34296 14.1667 4.10258 14.1179 3.97437 13.76C3.8702 13.4673 3.76604 13.2233 3.43751 13.1013C3.12501 12.9875 3.34937 12.8086 3.47758 12.7028C3.84617 12.4182 4.55129 12.4589 4.9279 12.7679C5.16828 13.0444 5.14424 13.3128 4.91988 13.5811Z" fill="#F2959D"/>
<path d="M4.91986 13.581C4.91986 13.3126 4.92787 13.0442 4.92787 12.7759C5.03204 12.6295 5.11217 12.4181 5.34454 12.5319C5.62499 12.6702 5.93749 12.7596 6.15383 12.9873C6.22595 13.0605 6.1298 13.15 6.06569 13.1906C5.72916 13.4509 5.40063 13.7518 4.91986 13.581Z" fill="#FEEFE7"/>
<path d="M13.5737 12.9711C13.5657 12.9874 13.5497 12.9955 13.5497 13.0118C13.2131 14.0121 13.4615 13.9552 12.1635 14.1015C11.7388 13.8169 11.4022 13.3452 11.25 12.7922C11.5385 12.8817 11.6346 13.1257 11.7628 13.3046C11.9792 13.6217 12.2356 13.76 12.6442 13.7031C13.0369 13.6461 13.1651 13.4266 13.2612 13.0931C13.3413 12.7922 13.3654 12.8004 13.5737 12.9711Z" fill="#BA5C7B"/>
<path d="M7.37178 12.5971C7.3798 12.3857 7.18749 12.4101 7.07531 12.3287C6.98717 12.2637 6.85095 12.2149 6.92307 12.0685C6.97916 11.9546 7.09133 11.9709 7.17948 12.0278C7.47595 12.223 7.76441 12.2067 8.06089 12.0278C8.16505 11.9628 8.29326 11.9221 8.34133 12.0929C8.3814 12.2149 8.28525 12.2962 8.18909 12.3125C7.7564 12.4019 7.5721 12.7191 7.47595 13.1176C7.45191 13.2233 7.43589 13.3941 7.27563 13.3371C7.10736 13.2883 7.20351 13.142 7.23556 13.0362C7.26762 12.8899 7.32371 12.7435 7.37178 12.5971Z" fill="#322625"/>
<path d="M10.5369 9.62866C10.8173 9.67746 11.0417 9.82384 11.0176 10.1166C10.9856 10.45 10.7372 10.694 10.4247 10.6859C10.1683 10.6777 10.024 10.4175 10.0321 10.1329C10.0401 9.80757 10.2404 9.66119 10.5369 9.62866Z" fill="#E85678"/>
<path d="M16.1699 12.5644C16.1859 12.1334 16.1699 11.7187 15.6651 11.5479C16.0176 11.4503 16.2019 11.1901 16.3141 10.8566C16.4503 10.4663 16.5305 10.0515 16.7869 9.62866C16.9471 10.019 16.9071 10.3606 16.7468 10.6289C16.4103 11.1819 16.242 11.7512 16.258 12.3937C16.266 12.4506 16.2019 12.5075 16.1699 12.5644Z" fill="#FCE2D8"/>
</svg>
