<svg width="31" height="50" viewBox="0 0 31 50" fill="none" xmlns="http://www.w3.org/2000/svg">
<path d="M6.01243 39.6144C5.27534 36.4969 4.36403 33.4201 3.47953 30.3433C3.29191 29.6927 3.11768 29.0421 2.94346 28.3915C2.76924 27.9713 2.95687 27.7273 3.35891 27.6596C4.32383 27.4969 5.27534 27.2936 6.21345 26.9683C6.70931 26.7921 6.97734 27.0632 7.17836 27.524C7.74123 28.8659 8.18348 29.0556 9.57724 28.5677C9.89888 28.4593 10.2071 28.3508 10.5422 28.2559C11.2658 28.0662 11.8153 28.2153 12.2844 28.893C13.3297 30.3975 14.8709 30.899 16.6131 30.8177C17.6182 30.777 18.4223 30.2891 19.0388 29.4894C19.1862 29.2861 19.3202 29.0692 19.4542 28.8523C20.4995 27.1445 21.1696 26.9141 23.0726 27.6596C23.5149 27.8358 23.9571 27.9984 24.4128 28.134C25.6725 28.5135 26.8385 28.283 27.924 27.5376C28.2724 27.2936 28.5807 27.009 28.8889 26.7243C29.0899 26.5346 29.358 26.2499 29.5992 26.3855C29.9074 26.5481 29.7868 26.9141 29.6796 27.2123C29.2106 30.1671 28.5137 33.0948 28.1384 36.0632C28.2724 37.4457 27.8302 38.7334 27.4817 40.021C27.4013 40.3192 27.1065 40.509 26.8385 40.6716C26.289 41.0105 25.7127 41.2816 25.0829 41.4713C22.9252 42.1219 20.7274 42.4337 18.4893 42.4743C15.3667 42.515 12.2442 42.5015 9.1618 41.7966C8.39791 41.6204 7.63402 41.4307 6.93713 41.0647C6.38767 40.753 5.86501 40.4005 6.01243 39.6144Z" fill="#F16B83"/>
<path d="M29.157 19.2423C29.6529 20.1233 30.3631 20.8552 30.6312 21.926C30.8188 22.6851 30.725 23.3221 30.5106 24.0134C30.2023 23.7559 30.2827 23.4034 30.2559 23.1188C30.1755 23.6881 29.8405 24.1896 29.5188 24.6911C29.1838 25.2062 28.9292 25.8161 28.5673 26.2634C27.8972 27.0766 27.0261 27.7272 25.9004 27.8221C24.7613 27.917 23.6892 27.7272 22.6304 27.2528C20.9686 26.5074 20.5398 26.6836 19.5749 28.2694C18.2481 30.4517 16.3451 30.9396 14.1338 29.6655C13.571 29.3402 13.0617 28.9336 12.6329 28.4456C12.137 27.8899 11.5875 27.7544 10.9041 28.0254C10.4082 28.2152 9.89893 28.3779 9.34947 28.2694C8.58558 28.1339 8.02271 27.7001 7.64747 27.0224C7.32583 26.4396 6.89698 26.2905 6.32071 26.5751C5.28879 27.0902 4.16306 27.1444 3.05073 27.2257C2.71569 27.2528 2.38065 27.1851 2.05901 27.1038C1.49615 26.9547 0.960082 26.6971 0.839468 26.0736C0.705452 25.4095 1.0807 24.9351 1.61676 24.5962C2.00541 24.3522 2.35385 24.1354 1.9518 23.6339C2.07241 23.0104 1.64356 22.5224 1.58996 21.9125C1.49615 20.8281 1.992 20.1233 2.76929 19.554C3.06413 19.3372 3.30536 19.0796 3.60019 18.8899C4.21667 18.4968 4.32388 17.9546 4.31048 17.2905C4.27027 15.0134 5.28879 13.3733 7.35263 12.4516C8.15673 12.0992 8.86701 11.6519 9.51029 11.0691C9.99274 10.7709 10.234 11.0962 10.4216 11.4621C10.6762 11.9365 10.8504 12.4516 11.1587 12.8853C11.8288 13.8341 12.6731 13.9697 13.5978 13.2649C14.0534 12.926 14.5091 12.6007 15.1121 12.6685C15.4472 12.9938 15.1121 13.1971 14.9245 13.3191C14.5359 13.5902 14.6699 13.807 14.9111 14.0646C14.4957 14.7829 13.7318 14.8643 13.0349 15.0269C11.6947 15.3522 10.301 15.176 8.94742 15.3929C8.31755 15.5013 7.67427 15.542 7.031 15.6504C6.38772 15.7588 5.86506 16.0841 5.69084 16.7619C5.53002 17.3989 5.98567 17.7649 6.37432 18.1173C7.44644 19.0796 8.7732 19.432 10.1268 19.3101C11.9762 19.1339 13.8658 19.0119 15.6616 18.429C17.9265 17.6835 19.8161 16.5043 20.7274 14.1052C21.1429 13.0209 21.5985 11.9637 21.9201 10.8387C22.014 10.4862 22.0408 10.0118 22.6036 10.039C23.4613 10.6082 23.8098 11.5164 24.1448 12.4381C24.3324 12.9531 24.4262 13.5224 24.7881 13.9561C25.82 14.7694 25.8066 14.7694 25.418 15.9622C25.1499 16.789 24.6809 17.4667 24.0778 18.0902C23.7696 18.4019 23.3407 18.6595 23.4881 19.2152C23.2603 19.7573 22.4294 19.8387 22.4964 20.5977C22.081 21.0992 21.4913 21.3296 20.9686 21.6685C20.7408 21.6549 20.647 21.804 20.5532 21.9938C19.8429 23.3763 18.6636 23.4712 17.6852 22.2513C17.645 22.1971 17.6048 22.1429 17.5646 22.1022C17.9131 22.5766 18.2883 23.0239 18.7708 23.3763C19.2398 23.6881 19.7491 23.539 20.2449 23.5254C20.848 23.5119 21.4109 23.5661 21.8799 23.9998C22.1614 24.2574 22.5232 24.3522 22.8985 24.298C25.418 23.8914 27.2808 22.3191 27.2004 19.676C27.187 19.3101 27.1736 18.9441 27.254 18.5781C27.3478 18.1986 27.522 17.9411 27.9643 18.1986C28.0849 18.307 28.1921 18.429 28.3127 18.5375C29.2508 19.7302 28.8622 22.9155 27.1602 24.1625C26.3025 24.7995 25.3241 25.2062 24.3056 25.7754C24.9489 26.1821 25.619 26.2634 26.1818 26.0601C27.0261 25.7348 27.8034 25.2604 28.3261 24.4065C29.1838 23.0239 29.492 21.6143 28.8756 20.0691C28.7952 19.8658 28.755 19.6218 28.7684 19.4049C28.7684 19.1745 28.9292 19.0932 29.157 19.2423Z" fill="#FCE2D8"/>
<path d="M22.6304 10.066C22.1748 10.2964 22.2686 10.798 22.1346 11.1775C21.4779 13.0208 21.0222 14.9727 19.6285 16.4636C18.5697 17.5886 17.2296 18.2392 15.7956 18.7407C14.7637 19.0932 13.6916 19.2016 12.6328 19.3371C10.7298 19.5947 8.79998 19.9877 6.97737 18.8898C6.56192 18.6323 6.20008 18.3341 5.87844 17.9953C5.06094 17.1278 5.31557 16.0163 6.4279 15.5555C7.19179 15.2437 8.02269 15.3115 8.81338 15.1624C10.1803 14.9049 11.6009 15.0946 12.9679 14.81C13.6782 14.6609 14.375 14.4983 14.9245 13.9696C15.9296 13.0615 17.0956 12.3296 18.1677 11.4621C18.4089 11.2724 18.6501 11.0961 18.8646 10.8928C20.1109 10.0525 20.0975 8.72415 20.1243 7.4365C20.1377 7.08409 19.9367 6.71812 20.2315 6.39282C20.4728 6.50126 20.5934 6.73168 20.5532 6.93499C20.2851 8.19554 21.25 8.69704 21.9871 9.32054C22.2686 9.52385 22.483 9.75428 22.6304 10.066Z" fill="#FEEFE7"/>
<path d="M1.96518 23.6473C2.21981 23.7015 2.56825 23.5524 2.62185 23.9862C2.66206 24.2979 2.44763 24.4335 2.21981 24.569C2.07239 24.6503 1.95178 24.7723 1.79096 24.8265C1.22809 25.0299 0.986861 25.5314 1.02707 26.0058C1.06727 26.5073 1.57653 26.7919 2.05899 26.8597C3.42595 27.063 4.76611 26.9546 6.05266 26.3988C7.35261 25.8431 7.41962 26.0058 7.90207 26.941C8.43814 27.9711 9.37625 28.3235 10.4618 27.8762C11.5473 27.4154 12.338 27.5509 13.1019 28.4997C13.7854 29.3537 14.7503 29.8958 15.809 30.072C17.3234 30.3296 18.7439 29.5163 19.4006 28.0253C19.9769 26.7106 21.1964 26.0871 22.5232 26.8868C23.6087 27.5509 24.8417 27.6187 26.088 27.5645C26.5303 27.5509 26.7849 27.2799 27.1199 27.063C28.7415 26.0193 29.559 24.4335 30.0549 22.6172C30.0951 22.4546 30.1487 22.2919 30.3899 22.197C30.6714 22.7799 30.4569 23.4033 30.5373 23.9862C30.6177 24.4064 30.3899 24.7452 30.2023 25.0705C29.8136 25.7347 29.9745 26.5073 29.693 27.185C29.6796 26.9546 29.6662 26.7377 29.6528 26.3988C29.1436 26.8326 28.7013 27.2392 28.2457 27.6052C26.9859 28.6217 25.5788 28.7979 24.0644 28.2829C23.4613 28.0796 22.8716 27.8085 22.2552 27.6187C21.0356 27.2528 20.5398 27.4696 19.9233 28.5811C19.3068 29.6925 18.6233 30.6684 17.2832 30.9802C15.3533 31.4275 13.0617 30.5871 11.9896 28.9064C11.6679 28.4049 11.3061 28.2829 10.7968 28.4455C10.2608 28.6082 9.75149 28.825 9.21543 28.9741C7.95568 29.3266 7.31241 28.9606 6.99077 27.6865C6.85675 27.1579 6.66913 26.9817 6.14647 27.2392C5.32897 27.6323 4.44447 27.7949 3.55996 27.8491C3.19812 27.8762 2.97029 27.9711 2.9837 28.3778C2.63525 27.6187 1.81776 27.7814 1.24149 27.5916C-0.00485553 27.1985 -0.433705 25.3687 0.517807 24.7046C0.986862 24.3928 1.46932 24.0133 1.96518 23.6473Z" fill="#F9CBC0"/>
<path d="M20.2583 6.37924C20.4728 7.35515 20.4594 8.33105 20.2583 9.30696C20.0841 10.1202 19.7223 10.7844 18.9316 11.1368C17.8997 11.6112 16.7739 11.2994 15.7018 11.5027C14.1338 11.2723 12.673 9.45605 12.8071 7.8431C12.8339 7.58557 12.673 7.28737 12.9277 7.05695C13.3699 6.04038 14.2276 5.49821 15.1657 5.01026C15.5544 4.80695 15.7152 4.9696 15.8492 5.2949C16.3183 5.32201 16.1038 4.73918 16.4255 4.61719C16.4925 4.56297 16.5595 4.50875 16.6265 4.44098C17.0956 4.40032 17.4306 4.73918 17.7924 4.94249C18.1945 5.17291 18.0605 5.57954 17.8461 5.89129C17.4842 6.40635 16.9481 6.60966 16.3585 6.70454C17.712 6.4199 18.0471 6.06749 18.1543 4.69851C18.2213 3.93948 18.5563 4.22411 18.9048 4.45454C19.5347 4.98315 19.9769 5.6202 20.2583 6.37924Z" fill="#ED3E6E"/>
<path d="M27.9776 18.2258C27.4683 18.1987 27.4951 18.5511 27.4817 18.9035C27.4549 19.6083 27.5622 20.2996 27.3879 21.0044C26.7849 23.417 24.8014 24.2845 22.7778 24.664C22.4696 24.7182 22.0541 24.6369 21.9201 24.4336C21.3036 23.5661 20.4325 23.8914 19.6418 23.8237C19.2666 23.7966 18.8377 23.9457 18.5965 23.4984C19.615 23.1595 20.5263 22.6987 20.9552 21.6143C21.3036 21.045 21.9469 20.8959 22.4696 20.5842C23.2066 20.2724 23.4747 20.3673 23.6757 20.9908C23.7695 21.2619 23.6489 21.6821 24.0777 21.7228C24.4396 21.7499 24.6674 21.4517 24.8684 21.1941C24.9488 21.0857 25.0159 20.9637 25.0829 20.8282C25.2169 19.4321 25.7261 18.1444 26.2756 16.8703C25.7797 17.8598 25.7797 19.1746 24.3726 19.4863C24.0509 19.4999 23.7159 19.527 23.4747 19.2423C23.0458 19.2288 22.885 19.1339 23.22 18.7137C23.7561 18.0496 24.4262 17.5074 24.8684 16.7483C25.1633 16.2333 25.2839 15.664 25.4983 15.1354C25.6993 14.6474 25.0025 14.4035 24.8014 13.9697C26.1952 14.5526 26.9993 15.6233 27.3477 17.0736C27.4549 17.5345 27.6694 17.9005 27.9776 18.2258Z" fill="#FEF3E7"/>
<path d="M12.9277 7.04346C12.4452 8.76485 14.241 10.9606 15.5812 11.2588C15.8894 11.4892 16.4791 11.5299 16.2915 12.0992C16.144 12.56 15.7822 12.8718 15.2327 12.7769C14.6297 12.9667 14.0534 13.1971 13.5709 13.6715C12.8338 14.3763 11.5205 14.0239 10.8906 12.9802C10.6226 12.5194 10.3948 12.0314 10.2071 11.5299C10.0731 11.1639 9.84529 11.0555 9.51025 11.0691C10.3009 10.0118 11.1184 8.95461 12.2576 8.29045C12.8472 7.9787 12.4988 7.34165 12.9277 7.04346Z" fill="#FEEFE7"/>
<path d="M29.157 19.2423C28.9023 19.2829 28.8353 19.3914 28.9693 19.6489C30.0683 21.7363 29.291 23.5661 28.1116 25.301C27.4818 26.2227 25.2303 26.6971 24.1984 26.2092C24.0376 26.1414 23.8633 26.0872 23.8633 25.8839C23.8633 25.5992 24.1046 25.5315 24.3056 25.4501C25.2437 25.0842 26.155 24.6775 26.9457 24.0269C27.8972 23.2272 28.5673 22.2784 28.5003 20.9366C28.4601 20.1504 28.7013 19.3372 28.3261 18.5781C28.6611 18.7137 28.9961 18.8763 29.157 19.2423Z" fill="#FEF3E7"/>
<path d="M15.3935 3.64135C13.6781 3.43804 12.6596 2.36725 12.6864 0.808512C12.6998 0.0630282 12.941 -0.113177 13.6915 0.0630283C14.9781 0.361222 15.8224 1.62177 15.8492 3.27538C15.7018 3.38382 15.5543 3.51936 15.3935 3.64135Z" fill="#20B39B"/>
<path d="M18.9048 4.46805C18.7842 4.6307 18.3821 3.93944 18.4089 4.68492C18.4491 6.36565 17.2564 7.23312 15.4472 6.74517C15.7688 6.66384 16.1039 6.59607 16.4121 6.51475C16.9347 6.36565 17.444 6.18944 17.7254 5.68794C17.9265 5.34908 17.9399 4.90179 17.4306 5.01022C16.8677 5.11866 16.7873 4.7798 16.6131 4.4545C17.2832 4.00721 18.3955 4.02076 18.9048 4.46805Z" fill="#F5D5D9"/>
<path d="M15.3935 3.64124C15.2595 3.13973 15.5275 3.16684 15.8626 3.27527C16.0502 3.72256 16.2378 4.16985 16.4254 4.61714C16.4388 4.8069 16.4522 5.01022 16.4388 5.19998C16.4254 5.36263 16.4522 5.56594 16.2646 5.62016C16.0368 5.67438 15.9564 5.44395 15.8492 5.29486C15.8894 4.68492 15.4739 4.21052 15.3935 3.64124Z" fill="#2A8F72"/>
<path d="M17.1491 35.6024C15.7956 35.5618 14.8173 34.9654 14.0534 33.9895C13.906 33.7997 13.6513 33.5557 13.906 33.3253C14.2142 33.0407 14.4152 33.3795 14.5894 33.5693C15.0317 34.0166 15.474 34.4368 16.077 34.6401C17.3904 35.0738 18.4893 34.6672 19.4274 33.7048C19.5882 33.5422 19.7223 33.366 19.8697 33.2033C20.0171 33.0542 20.2047 32.9322 20.3923 33.0949C20.6202 33.2847 20.4995 33.5286 20.3923 33.7184C19.8161 34.6807 18.9718 35.2907 17.8862 35.5482C17.6182 35.5889 17.3368 35.5889 17.1491 35.6024Z" fill="#24111C"/>
<path d="M25.4849 32.4306C25.4581 32.8101 25.1767 32.6881 25.0159 32.5932C24.2252 32.1324 23.5015 32.173 22.7778 32.7423C22.6036 32.8779 22.3355 32.9727 22.1747 32.7423C22.0005 32.5255 22.2015 32.3357 22.3489 32.1595C22.9252 31.4818 24.2386 31.2378 24.9489 31.6986C25.2035 31.8613 25.4447 32.0646 25.4849 32.4306Z" fill="#2F151E"/>
<path d="M10.3546 31.6716C10.9576 31.753 11.5339 31.8885 11.9359 32.3629C12.0566 32.4984 12.2174 32.6611 12.0566 32.878C11.9225 33.0406 11.7349 33.0135 11.6009 32.9322C10.77 32.4036 9.93911 32.3358 9.09482 32.8915C9.001 32.9457 8.88039 32.9593 8.79998 32.8508C8.67937 32.6882 8.74637 32.5255 8.84018 32.39C9.20203 31.8343 9.7917 31.7801 10.3546 31.6716Z" fill="#3D1B26"/>
<path d="M8.81339 33.298C9.08143 33.3929 9.52368 33.1354 9.61749 33.5014C9.7113 33.8673 9.30925 34.0435 9.02782 34.2197C8.75979 34.3688 8.50516 34.5586 8.18352 34.5315C7.82168 34.5044 7.29902 34.6806 7.21861 34.1384C7.1516 33.6776 7.62065 33.5014 7.9825 33.3929C8.23713 33.3116 8.53196 33.3251 8.81339 33.298Z" fill="#FBD3CA"/>
<path d="M25.2437 32.9185C25.5251 32.9456 25.7798 32.9591 26.021 33.0133C26.3962 33.0947 26.8921 33.2031 26.7983 33.7046C26.7045 34.179 26.2086 34.1383 25.8334 34.1248C25.5921 34.1112 25.3375 34.0164 25.1231 33.8944C24.8148 33.7317 24.3592 33.5691 24.4664 33.1624C24.5334 32.7965 25.0025 33.0676 25.2437 32.9185Z" fill="#FAD0CC"/>
<path d="M23.4613 19.2424C23.7963 19.2424 24.118 19.2424 24.453 19.2424C25.3643 19.4322 25.5117 19.7033 25.2973 20.9367C25.1499 21.2349 24.9891 21.5331 24.721 21.75C24.4396 21.9939 24.1314 22.2379 23.7427 22.0753C23.3943 21.9262 23.4613 21.5467 23.4747 21.2485C23.5283 20.381 22.9252 20.6114 22.4562 20.5843C22.0541 20.0692 22.4294 19.7846 22.7912 19.5271C22.9922 19.3915 23.2469 19.3373 23.4613 19.2424Z" fill="#F29B9B"/>
<path d="M15.2327 12.7904C15.2863 12.7633 15.3265 12.7362 15.3801 12.7091C16.2646 12.0856 16.2646 12.0856 15.5946 11.2723C16.6935 10.9199 17.8192 11.191 18.9316 11.1368C17.6048 12.1127 16.4657 13.3597 14.9111 13.9832C14.6565 13.929 14.3348 14.3491 14.174 13.9832C14.0534 13.6985 14.4554 13.5494 14.6297 13.3326C14.7905 13.1293 15.1255 13.075 15.2327 12.7904Z" fill="#F9D8C8"/>
<path d="M6.4815 22.6308C6.32068 22.8206 6.17326 23.0239 5.98564 23.1865C5.51659 23.6067 5.11454 23.5254 4.90011 22.929C4.72589 22.441 4.55167 22.0344 4.00221 21.8311C3.47955 21.6413 3.85479 21.3431 4.06922 21.1669C4.68569 20.6925 5.86503 20.7603 6.4949 21.2754C6.89695 21.7362 6.85675 22.1835 6.4815 22.6308Z" fill="#F2959D"/>
<path d="M6.48151 22.6309C6.48151 22.1836 6.49491 21.7363 6.49491 21.289C6.66913 21.045 6.80314 20.6926 7.19179 20.8824C7.66085 21.1128 8.18351 21.2619 8.54535 21.6414C8.66596 21.7634 8.50514 21.9125 8.39793 21.9803C7.83507 22.414 7.2856 22.9155 6.48151 22.6309Z" fill="#FEEFE7"/>
<path d="M20.9552 21.6144C20.9418 21.6415 20.915 21.655 20.915 21.6821C20.3521 23.3493 20.7676 23.2544 18.5965 23.4984C17.8863 23.024 17.3234 22.2379 17.0688 21.3162C17.5512 21.4653 17.712 21.8719 17.9265 22.1701C18.2883 22.6987 18.7171 22.9291 19.4006 22.8342C20.0573 22.7394 20.2717 22.3734 20.4326 21.8177C20.5666 21.3162 20.6068 21.3297 20.9552 21.6144Z" fill="#BA5C7B"/>
<path d="M10.5824 20.9909C10.5958 20.6385 10.2742 20.6791 10.0865 20.5436C9.93912 20.4351 9.71129 20.3538 9.83191 20.1098C9.92572 19.9201 10.1133 19.9472 10.2608 20.0421C10.7566 20.3674 11.2391 20.3403 11.7349 20.0421C11.9092 19.9336 12.1236 19.8659 12.204 20.1505C12.271 20.3538 12.1102 20.4894 11.9494 20.5165C11.2257 20.6656 10.9174 21.1942 10.7566 21.8583C10.7164 22.0345 10.6896 22.3192 10.4216 22.2243C10.1401 22.143 10.301 21.899 10.3546 21.7228C10.4082 21.4788 10.502 21.2348 10.5824 20.9909Z" fill="#322625"/>
<path d="M15.876 16.0435C16.345 16.1248 16.7203 16.3688 16.6801 16.8567C16.6265 17.4124 16.211 17.8191 15.6884 17.8055C15.2595 17.792 15.0183 17.3582 15.0317 16.8838C15.0451 16.3417 15.3801 16.0977 15.876 16.0435Z" fill="#E85678"/>
<path d="M25.2973 20.9365C25.3241 20.2182 25.2973 19.5269 24.453 19.2423C25.0427 19.0796 25.3509 18.6459 25.5385 18.0901C25.7664 17.4395 25.9004 16.7483 26.3292 16.0435C26.5973 16.6941 26.5302 17.2633 26.2622 17.7106C25.6993 18.6323 25.4179 19.5811 25.4447 20.6519C25.4581 20.7468 25.3509 20.8417 25.2973 20.9365Z" fill="#FCE2D8"/>
<path d="M5.06042 43.8847C3.821 41.8996 3.14047 39.6166 3.09063 37.2769C3.04078 34.9371 3.62349 32.6272 4.77724 30.5911C5.93099 28.555 7.613 26.868 9.64577 25.7083C11.6785 24.5486 13.9867 23.9592 16.3266 24.0022C18.6665 24.0452 20.9514 24.7191 22.9402 25.9527C24.929 27.1863 26.5478 28.9339 27.626 31.0111C28.7041 33.0882 29.2016 35.4179 29.0658 37.7543C28.93 40.0906 28.166 42.347 26.8545 44.2853L25.7976 43.5701C26.9803 41.8221 27.6693 39.7873 27.7918 37.6802C27.9142 35.5732 27.4656 33.4722 26.4933 31.599C25.521 29.7257 24.061 28.1497 22.2675 27.0371C20.4739 25.9246 18.4133 25.3169 16.3031 25.2781C14.1929 25.2393 12.1114 25.7709 10.2781 26.8168C8.44492 27.8626 6.92803 29.384 5.88753 31.2202C4.84704 33.0565 4.32154 35.1396 4.36648 37.2497C4.41143 39.3598 5.02517 41.4186 6.14291 43.2089L5.06042 43.8847Z" fill="#4781B6"/>
<rect x="1.08768" y="41" width="29" height="9" fill="#3D8FDC"/>
</svg>
