<svg width="79" height="78" viewBox="0 0 79 78" fill="none" xmlns="http://www.w3.org/2000/svg">
<ellipse cx="41" cy="65.5" rx="28" ry="5.5" fill="#0256B1"/>
<path d="M24.6891 63.3492C23.5146 58.3645 22.0625 53.4448 20.6531 48.5251C20.3542 47.4848 20.0766 46.4445 19.799 45.4042C19.5213 44.7324 19.8203 44.3423 20.4609 44.2339C21.9984 43.9738 23.5146 43.6487 25.0094 43.1286C25.7995 42.8469 26.2266 43.2803 26.5469 44.0172C27.4437 46.1628 28.1484 46.4662 30.3693 45.686C30.8818 45.5126 31.3729 45.3392 31.9068 45.1875C33.0599 44.8841 33.9354 45.1225 34.6828 46.2061C36.3484 48.6118 38.8042 49.4137 41.5802 49.2836C43.1818 49.2186 44.463 48.4384 45.4453 47.1597C45.6802 46.8346 45.8937 46.4879 46.1073 46.1411C47.7729 43.4103 48.8406 43.0419 51.8729 44.2339C52.5776 44.5157 53.2823 44.7757 54.0083 44.9924C56.0156 45.5993 57.8734 45.2308 59.6031 44.0388C60.1583 43.6487 60.6495 43.1936 61.1406 42.7385C61.4609 42.4351 61.888 41.9799 62.2724 42.1967C62.7635 42.4567 62.5713 43.0419 62.4005 43.5187C61.6531 48.2434 60.5427 52.9247 59.9448 57.671C60.1583 59.8816 59.4536 61.9405 58.8984 63.9994C58.7703 64.4762 58.3005 64.7796 57.8734 65.0397C56.9979 65.5815 56.0797 66.015 55.076 66.3184C51.638 67.3587 48.1359 67.8571 44.5698 67.9221C39.5943 67.9872 34.6187 67.9655 29.7073 66.8385C28.4901 66.5568 27.2729 66.2534 26.1625 65.6682C25.287 65.1697 24.4542 64.6062 24.6891 63.3492Z" fill="#F16B83"/>
<path d="M61.5677 30.7754C62.3578 32.1841 63.4896 33.3544 63.9167 35.0666C64.2156 36.2803 64.0662 37.2989 63.7245 38.4042C63.2333 37.9924 63.3615 37.4289 63.3188 36.9738C63.1906 37.884 62.6568 38.6859 62.1443 39.4878C61.6104 40.3114 61.2047 41.2866 60.6281 42.0018C59.5604 43.3022 58.1724 44.3425 56.3787 44.4942C54.5636 44.6459 52.8552 44.3425 51.1682 43.584C48.5203 42.392 47.837 42.6737 46.2995 45.2094C44.1854 48.6987 41.1531 49.4789 37.6297 47.4417C36.7328 46.9215 35.9214 46.2714 35.238 45.4911C34.4479 44.6026 33.5724 44.3858 32.4833 44.8193C31.6932 45.1227 30.8818 45.3828 30.0063 45.2094C28.7891 44.9927 27.8922 44.2991 27.2943 43.2155C26.7818 42.2836 26.0985 42.0452 25.1802 42.5003C23.536 43.3239 21.7422 43.4106 19.9698 43.5406C19.436 43.584 18.9021 43.4756 18.3896 43.3456C17.4927 43.1072 16.6386 42.6954 16.4464 41.6984C16.2328 40.6365 16.8307 39.8779 17.6849 39.3361C18.3042 38.946 18.8594 38.5992 18.2188 37.7973C18.411 36.8004 17.7276 36.0202 17.6422 35.0449C17.4927 33.3111 18.2828 32.1841 19.5214 31.2739C19.9912 30.9271 20.3755 30.5153 20.8453 30.2119C21.8276 29.5834 21.9985 28.7165 21.9771 27.6545C21.913 24.0135 23.536 21.3911 26.8245 19.9174C28.1057 19.3539 29.2375 18.6387 30.2625 17.7068C31.0313 17.23 31.4156 17.7501 31.7146 18.3353C32.1203 19.0938 32.3979 19.9174 32.8891 20.6109C33.9568 22.128 35.3021 22.3447 36.7755 21.2177C37.5016 20.6759 38.2276 20.1558 39.1886 20.2641C39.7224 20.7843 39.1886 21.1094 38.8896 21.3044C38.2703 21.7379 38.4839 22.0846 38.8682 22.4964C38.2063 23.6451 36.9891 23.7751 35.8787 24.0352C33.7432 24.5553 31.5224 24.2736 29.3656 24.6203C28.362 24.7937 27.337 24.8588 26.312 25.0321C25.287 25.2055 24.4542 25.7257 24.1766 26.8093C23.9203 27.8279 24.6464 28.4131 25.2656 28.9766C26.974 30.5153 29.088 31.0788 31.2448 30.8838C34.1917 30.602 37.2026 30.407 40.0641 29.475C43.6729 28.283 46.6839 26.3975 48.136 22.5614C48.7979 20.8276 49.524 19.1372 50.0365 17.3383C50.186 16.7748 50.2287 16.0163 51.1255 16.0596C52.4922 16.9699 53.0474 18.422 53.5813 19.8957C53.8802 20.7193 54.0297 21.6295 54.6063 22.323C56.2505 23.6234 56.2292 23.6234 55.6099 25.5306C55.1828 26.8526 54.4354 27.9363 53.4745 28.9332C52.9833 29.4317 52.3 29.8435 52.5349 30.732C52.1719 31.599 50.8479 31.729 50.9547 32.9427C50.2927 33.7446 49.3531 34.113 48.5203 34.6548C48.1573 34.6331 48.0078 34.8715 47.8583 35.1749C46.7266 37.3856 44.8474 37.5373 43.2886 35.5867C43.2245 35.5 43.1604 35.4133 43.0964 35.3483C43.6516 36.1069 44.2495 36.8221 45.0182 37.3856C45.7656 37.884 46.5771 37.6456 47.3672 37.624C48.3281 37.6023 49.225 37.689 49.9724 38.3825C50.4208 38.7943 50.9974 38.946 51.5953 38.8593C55.6099 38.2091 58.5781 35.6951 58.45 31.4689C58.4287 30.8838 58.4073 30.2986 58.5354 29.7134C58.6849 29.1066 58.9625 28.6948 59.6672 29.1066C59.8594 29.28 60.0302 29.475 60.2224 29.6484C61.7172 31.5556 61.0979 36.6487 58.386 38.6426C57.0193 39.6612 55.4604 40.3114 53.8375 41.2216C54.8625 41.8718 55.9302 42.0018 56.8271 41.6768C58.1724 41.1566 59.4109 40.3981 60.2438 39.0327C61.6104 36.8221 62.1016 34.5681 61.1193 32.0974C60.9912 31.7723 60.9271 31.3822 60.9485 31.0355C60.9485 30.667 61.2047 30.537 61.5677 30.7754Z" fill="#FCE2D8"/>
<path d="M51.1683 16.1025C50.4422 16.471 50.5917 17.2729 50.3782 17.8797C49.3318 20.8272 48.6058 23.9481 46.3849 26.3321C44.698 28.1309 42.5626 29.1712 40.2777 29.9731C38.6334 30.5366 36.9251 30.7099 35.2381 30.9267C32.2058 31.3384 29.1308 31.967 26.2266 30.2115C25.5646 29.7997 24.9881 29.3229 24.4756 28.7811C23.173 27.394 23.5787 25.6169 25.3511 24.88C26.5683 24.3815 27.8922 24.4899 29.1521 24.2515C31.3303 23.8397 33.5938 24.1431 35.7719 23.688C36.9037 23.4496 38.0141 23.1895 38.8896 22.3443C40.4912 20.8922 42.349 19.7219 44.0573 18.3348C44.4417 18.0314 44.8261 17.7497 45.1678 17.4246C47.1537 16.0809 47.1323 13.957 47.1751 11.898C47.1964 11.3346 46.8761 10.7494 47.3459 10.2292C47.7303 10.4026 47.9224 10.7711 47.8584 11.0962C47.4313 13.1117 48.9688 13.9136 50.1433 14.9105C50.5917 15.2356 50.9334 15.6041 51.1683 16.1025Z" fill="#FEEFE7"/>
<path d="M18.2402 37.8187C18.6459 37.9054 19.2011 37.667 19.2865 38.3605C19.3506 38.859 19.0089 39.0757 18.6459 39.2925C18.411 39.4225 18.2188 39.6176 17.9625 39.7043C17.0657 40.0293 16.6813 40.8312 16.7454 41.5898C16.8094 42.3917 17.6209 42.8468 18.3896 42.9552C20.5678 43.2802 22.7032 43.1069 24.7532 42.2183C26.8245 41.3297 26.9313 41.5898 27.7 43.0852C28.5542 44.7323 30.049 45.2958 31.7787 44.5806C33.5084 43.8437 34.7683 44.0605 35.9855 45.5776C37.0745 46.9429 38.612 47.8098 40.299 48.0916C42.712 48.5034 44.9756 47.203 46.0219 44.819C46.9402 42.7168 48.8834 41.7198 50.9974 42.9985C52.7271 44.0605 54.6917 44.1688 56.6777 44.0821C57.3823 44.0605 57.7881 43.627 58.3219 43.2802C60.9058 41.6115 62.2084 39.0757 62.9985 36.1716C63.0625 35.9115 63.148 35.6515 63.5323 35.4998C63.9808 36.4317 63.6391 37.4286 63.7672 38.3605C63.8954 39.0324 63.5323 39.5742 63.2334 40.0944C62.6141 41.1563 62.8704 42.3917 62.4219 43.4753C62.4006 43.1069 62.3792 42.7601 62.3579 42.2183C61.5464 42.9118 60.8417 43.562 60.1157 44.1472C58.1084 45.7726 55.8662 46.0544 53.4532 45.2308C52.4922 44.9057 51.5527 44.4722 50.5704 44.1688C48.6271 43.5837 47.837 43.9304 46.8547 45.7076C45.8724 47.4847 44.7834 49.0452 42.648 49.5437C39.573 50.2589 35.9214 48.9151 34.2131 46.2277C33.7006 45.4258 33.124 45.2308 32.3125 45.4909C31.4584 45.7509 30.6469 46.0977 29.7928 46.3361C27.7855 46.8996 26.7605 46.3144 26.248 44.2772C26.0344 43.432 25.7355 43.1502 24.9027 43.562C23.6 44.1905 22.1907 44.4506 20.7813 44.5373C20.2047 44.5806 19.8417 44.7323 19.8631 45.3825C19.3079 44.1688 18.0053 44.4289 17.087 44.1255C15.1011 43.497 14.4178 40.5712 15.9339 39.5092C16.6813 39.0107 17.45 38.4039 18.2402 37.8187Z" fill="#F9CBC0"/>
<path d="M47.3885 10.2079C47.7302 11.7684 47.7088 13.3288 47.3885 14.8892C47.1109 16.1896 46.5344 17.2516 45.2745 17.8151C43.6302 18.5736 41.8364 18.0751 40.1281 18.4002C37.6297 18.0318 35.3021 15.1276 35.5156 12.5486C35.5583 12.1368 35.3021 11.66 35.7078 11.2916C36.4125 9.66612 37.7792 8.79921 39.2739 8.019C39.8932 7.69391 40.1495 7.95398 40.363 8.47412C41.1104 8.51747 40.7687 7.58554 41.2812 7.39049C41.388 7.3038 41.4948 7.21711 41.6015 7.10874C42.3489 7.04373 42.8828 7.58554 43.4594 7.91063C44.1 8.27907 43.8864 8.92925 43.5448 9.42772C42.9682 10.2513 42.114 10.5764 41.1745 10.7281C43.3312 10.273 43.8651 9.70947 44.0359 7.52053C44.1427 6.30686 44.6765 6.76198 45.2318 7.13042C46.2354 7.97565 46.9401 8.99427 47.3885 10.2079Z" fill="#ED3E6E"/>
<path d="M59.6885 29.1497C58.8771 29.1064 58.9198 29.6699 58.8984 30.2333C58.8557 31.3603 59.0265 32.4656 58.7489 33.5926C57.788 37.4503 54.6276 38.8374 51.4031 39.4442C50.912 39.5309 50.25 39.4009 50.0364 39.0758C49.0541 37.6887 47.6661 38.2089 46.4062 38.1005C45.8083 38.0572 45.125 38.2956 44.7406 37.5804C46.3635 37.0386 47.8156 36.3017 48.4989 34.5679C49.0541 33.6576 50.0791 33.4192 50.912 32.9208C52.0864 32.4223 52.5135 32.574 52.8338 33.5709C52.9833 34.0044 52.7911 34.6762 53.4745 34.7413C54.051 34.7846 54.414 34.3078 54.7344 33.896C54.8625 33.7226 54.9692 33.5276 55.076 33.3109C55.2896 31.0786 56.101 29.0197 56.9765 26.9824C56.1864 28.5645 56.1864 30.6668 53.9442 31.1653C53.4317 31.1869 52.8979 31.2303 52.5135 30.7752C51.8302 30.7535 51.5739 30.6018 52.1078 29.9299C52.962 28.868 54.0297 28.0011 54.7344 26.7874C55.2041 25.9638 55.3963 25.0536 55.738 24.2083C56.0583 23.4281 54.9479 23.038 54.6276 22.3445C56.8484 23.2764 58.1297 24.9886 58.6849 27.3075C58.8557 28.0444 59.1974 28.6296 59.6885 29.1497Z" fill="#FEF3E7"/>
<path d="M35.7078 11.2698C34.9391 14.0222 37.8005 17.5332 39.936 18.01C40.4271 18.3784 41.3667 18.4434 41.0677 19.3537C40.8328 20.0906 40.2563 20.589 39.3807 20.4373C38.4198 20.7407 37.5016 21.1092 36.7328 21.8677C35.5583 22.9947 33.4656 22.4312 32.462 20.7624C32.0349 20.0255 31.6719 19.2453 31.3729 18.4434C31.1594 17.8583 30.7964 17.6849 30.2625 17.7066C31.5224 16.0161 32.825 14.3256 34.6401 13.2637C35.5797 12.7652 35.0245 11.7466 35.7078 11.2698Z" fill="#FEEFE7"/>
<path d="M61.5677 30.7753C61.162 30.8404 61.0552 31.0137 61.2688 31.4255C63.0198 34.7631 61.7813 37.6889 59.9021 40.463C58.8984 41.9368 55.3109 42.6953 53.6667 41.9151C53.4104 41.8067 53.1328 41.72 53.1328 41.395C53.1328 40.9398 53.5172 40.8315 53.8375 40.7014C55.3323 40.1163 56.7844 39.4661 58.0443 38.4258C59.5604 37.1471 60.6281 35.63 60.5214 33.4844C60.4573 32.2274 60.8417 30.927 60.2437 29.7134C60.7776 29.9301 61.3115 30.1902 61.5677 30.7753Z" fill="#FEF3E7"/>
<path d="M39.6369 5.82994C36.9036 5.50485 35.2807 3.7927 35.3234 1.30035C35.3447 0.108348 35.7291 -0.173397 36.925 0.108348C38.975 0.585147 40.3203 2.60071 40.363 5.24477C40.1281 5.41816 39.8932 5.63488 39.6369 5.82994Z" fill="#20B39B"/>
<path d="M45.2318 7.15209C45.0396 7.41217 44.399 6.30686 44.4417 7.49886C44.5057 10.1863 42.6052 11.5733 39.7224 10.7931C40.2349 10.6631 40.7688 10.5547 41.2599 10.4247C42.0927 10.1863 42.9042 9.90453 43.3526 9.10264C43.6729 8.56082 43.6943 7.84562 42.8828 8.019C41.986 8.19238 41.8578 7.65057 41.5802 7.13042C42.6479 6.41522 44.4203 6.4369 45.2318 7.15209Z" fill="#F5D5D9"/>
<path d="M39.637 5.82993C39.4234 5.02804 39.8505 5.07138 40.3844 5.24477C40.6833 5.95996 40.9823 6.67516 41.2812 7.39036C41.3026 7.69378 41.3239 8.01887 41.3026 8.32229C41.2812 8.58236 41.3239 8.90745 41.025 8.99414C40.662 9.08083 40.5338 8.7124 40.363 8.474C40.4271 7.49873 39.7651 6.74018 39.637 5.82993Z" fill="#2A8F72"/>
<path d="M42.4344 56.9341C40.2776 56.8691 38.7188 55.9155 37.5016 54.3551C37.2667 54.0516 36.861 53.6615 37.2667 53.2931C37.7578 52.838 38.0781 53.3798 38.3557 53.6832C39.0604 54.3984 39.7651 55.0703 40.7261 55.3953C42.8188 56.0889 44.5698 55.4387 46.0646 53.8999C46.3209 53.6399 46.5344 53.3581 46.7693 53.098C47.0042 52.8596 47.3031 52.6646 47.6021 52.9247C47.9651 53.2281 47.7729 53.6182 47.6021 53.9216C46.6839 55.4604 45.3386 56.4356 43.6089 56.8474C43.1818 56.9124 42.7334 56.9124 42.4344 56.9341Z" fill="#24111C"/>
<path d="M55.7167 51.8627C55.674 52.4695 55.2255 52.2745 54.9693 52.1227C53.7094 51.3859 52.5562 51.4509 51.4031 52.3611C51.1255 52.5779 50.6984 52.7296 50.4422 52.3611C50.1646 52.0144 50.4849 51.711 50.7198 51.4292C51.638 50.3456 53.7307 49.9555 54.8625 50.6923C55.2682 50.9524 55.6526 51.2775 55.7167 51.8627Z" fill="#2F151E"/>
<path d="M31.6078 50.6492C32.5687 50.7792 33.4869 50.9959 34.1276 51.7545C34.3198 51.9712 34.576 52.2313 34.3198 52.578C34.1062 52.8381 33.8073 52.7948 33.5937 52.6647C32.2698 51.8195 30.9458 51.7111 29.6005 52.5997C29.451 52.6864 29.2588 52.7081 29.1307 52.5347C28.9385 52.2746 29.0453 52.0145 29.1948 51.7978C29.7713 50.9092 30.7109 50.8226 31.6078 50.6492Z" fill="#3D1B26"/>
<path d="M29.1522 53.2498C29.5792 53.4015 30.2839 52.9897 30.4334 53.5749C30.5829 54.16 29.9423 54.4418 29.4938 54.7235C29.0667 54.9619 28.661 55.2653 28.1485 55.222C27.572 55.1786 26.7391 55.4604 26.611 54.5935C26.5042 53.8566 27.2516 53.5749 27.8282 53.4015C28.2339 53.2714 28.7037 53.2931 29.1522 53.2498Z" fill="#FBD3CA"/>
<path d="M55.3323 52.6431C55.7807 52.6864 56.1865 52.7081 56.5708 52.7948C57.1688 52.9248 57.9589 53.0982 57.8094 53.9001C57.6599 54.6586 56.8698 54.5936 56.2719 54.5719C55.8875 54.5503 55.4818 54.3986 55.1401 54.2035C54.649 53.9434 53.9229 53.6834 54.0938 53.0332C54.2005 52.448 54.9479 52.8815 55.3323 52.6431Z" fill="#FAD0CC"/>
<path d="M52.4922 30.7751C53.0261 30.7751 53.5386 30.7751 54.0724 30.7751C55.5245 31.0786 55.7594 31.512 55.4177 33.4842C55.1828 33.961 54.9266 34.4378 54.4995 34.7846C54.0511 35.1747 53.5599 35.5648 52.9407 35.3047C52.3854 35.0663 52.4922 34.4595 52.5136 33.9827C52.599 32.5957 51.6381 32.9641 50.8907 32.9207C50.25 32.0972 50.8479 31.6421 51.4245 31.2303C51.7448 31.0135 52.1506 30.9269 52.4922 30.7751Z" fill="#F29B9B"/>
<path d="M39.3807 20.4591C39.4661 20.4157 39.5302 20.3724 39.6156 20.329C41.025 19.3321 41.025 19.3321 39.9573 18.0317C41.7083 17.4682 43.5021 17.9017 45.2745 17.815C43.1604 19.3754 41.3453 21.3693 38.8682 22.3662C38.4625 22.2796 37.95 22.9514 37.6937 22.3662C37.5015 21.9111 38.1422 21.6727 38.4198 21.326C38.676 21.0009 39.2099 20.9142 39.3807 20.4591Z" fill="#F9D8C8"/>
<path d="M25.4365 36.1935C25.1803 36.4969 24.9454 36.822 24.6464 37.0821C23.899 37.7539 23.2584 37.6239 22.9167 36.6703C22.6391 35.8901 22.3615 35.2399 21.486 34.9148C20.6532 34.6114 21.2511 34.1346 21.5928 33.8528C22.575 33.0943 24.4542 33.2027 25.4579 34.0262C26.0985 34.7631 26.0344 35.4783 25.4365 36.1935Z" fill="#F2959D"/>
<path d="M25.4364 36.1934C25.4364 35.4782 25.4578 34.763 25.4578 34.0478C25.7354 33.6577 25.9489 33.0942 26.5682 33.3976C27.3156 33.7661 28.1484 34.0045 28.725 34.6113C28.9172 34.8063 28.6609 35.0447 28.4901 35.1531C27.5932 35.8466 26.7177 36.6485 25.4364 36.1934Z" fill="#FEEFE7"/>
<path d="M48.499 34.5679C48.4776 34.6112 48.4349 34.6329 48.4349 34.6762C47.538 37.342 48.2 37.1903 44.7406 37.5804C43.6088 36.8218 42.712 35.5648 42.3062 34.0911C43.075 34.3295 43.3312 34.9796 43.6729 35.4564C44.2495 36.3017 44.9328 36.6701 46.0219 36.5184C47.0682 36.3667 47.4099 35.7815 47.6661 34.893C47.8797 34.0911 47.9437 34.1127 48.499 34.5679Z" fill="#BA5C7B"/>
<path d="M31.9708 33.571C31.9921 33.0075 31.4796 33.0726 31.1807 32.8558C30.9458 32.6824 30.5828 32.5524 30.775 32.1623C30.9244 31.8589 31.2234 31.9022 31.4583 32.0539C32.2484 32.5741 33.0171 32.5307 33.8073 32.0539C34.0849 31.8806 34.4265 31.7722 34.5546 32.2273C34.6614 32.5524 34.4052 32.7691 34.1489 32.8125C32.9958 33.0509 32.5046 33.8961 32.2484 34.9581C32.1843 35.2398 32.1416 35.6949 31.7145 35.5432C31.2661 35.4132 31.5224 35.0231 31.6078 34.7414C31.6932 34.3512 31.8427 33.9611 31.9708 33.571Z" fill="#322625"/>
<path d="M40.4057 25.6604C41.1531 25.7904 41.751 26.1805 41.687 26.9608C41.6016 27.8493 40.9396 28.4995 40.1068 28.4778C39.4234 28.4562 39.0391 27.7627 39.0604 27.0041C39.0818 26.1372 39.6156 25.7471 40.4057 25.6604Z" fill="#E85678"/>
<path d="M55.4177 33.4842C55.4604 32.3356 55.4177 31.2303 54.0724 30.7752C55.012 30.5151 55.5031 29.8216 55.8021 28.933C56.1651 27.8927 56.3787 26.7874 57.062 25.6604C57.4891 26.7007 57.3823 27.6109 56.9552 28.3261C56.0584 29.7999 55.6099 31.317 55.6526 33.0291C55.674 33.1808 55.5032 33.3325 55.4177 33.4842Z" fill="#FCE2D8"/>
</svg>
