<svg width="34" height="34" viewBox="0 0 34 34" fill="none" xmlns="http://www.w3.org/2000/svg">
<circle cx="17" cy="17" r="17" fill="#0E0F2E"/>
<path d="M10.6394 25.7709C10.1987 23.9004 9.65384 22.0544 9.12499 20.2084C9.01281 19.818 8.90865 19.4277 8.80448 19.0373C8.70031 18.7852 8.81249 18.6388 9.05288 18.5982C9.6298 18.5006 10.1987 18.3786 10.7596 18.1834C11.0561 18.0777 11.2163 18.2403 11.3365 18.5168C11.6731 19.3219 11.9375 19.4358 12.7708 19.143C12.9631 19.078 13.1474 19.0129 13.3477 18.956C13.7804 18.8421 14.109 18.9316 14.3894 19.3382C15.0144 20.2409 15.9359 20.5418 16.9776 20.493C17.5785 20.4686 18.0593 20.1758 18.4279 19.696C18.516 19.574 18.5961 19.4439 18.6763 19.3138C19.3013 18.2891 19.7019 18.1509 20.8397 18.5982C21.1042 18.7039 21.3686 18.8015 21.641 18.8828C22.3942 19.1105 23.0913 18.9722 23.7404 18.525C23.9487 18.3786 24.133 18.2078 24.3173 18.037C24.4375 17.9232 24.5977 17.7524 24.742 17.8337C24.9263 17.9313 24.8542 18.1509 24.7901 18.3298C24.5096 20.1026 24.0929 21.8592 23.8686 23.6402C23.9487 24.4697 23.6843 25.2423 23.476 26.0148C23.4279 26.1938 23.2516 26.3076 23.0913 26.4052C22.7628 26.6085 22.4183 26.7712 22.0417 26.885C20.7516 27.2754 19.4375 27.4624 18.0994 27.4868C16.2324 27.5112 14.3654 27.5031 12.5224 27.0802C12.0657 26.9745 11.609 26.8606 11.1923 26.641C10.8638 26.454 10.5513 26.2426 10.6394 25.7709Z" fill="#F16B83"/>
<path d="M24.4776 13.5479C24.774 14.0765 25.1987 14.5157 25.359 15.1581C25.4712 15.6135 25.4151 15.9958 25.2869 16.4105C25.1026 16.256 25.1506 16.0445 25.1346 15.8738C25.0865 16.2153 24.8862 16.5162 24.6939 16.8171C24.4936 17.1261 24.3413 17.4921 24.125 17.7605C23.7244 18.2484 23.2035 18.6388 22.5305 18.6957C21.8494 18.7526 21.2083 18.6388 20.5753 18.3541C19.5817 17.9069 19.3253 18.0126 18.7484 18.9641C17.9551 20.2734 16.8173 20.5661 15.4952 19.8017C15.1587 19.6065 14.8542 19.3625 14.5978 19.0698C14.3013 18.7364 13.9728 18.655 13.5641 18.8177C13.2676 18.9315 12.9631 19.0291 12.6346 18.9641C12.1779 18.8827 11.8413 18.6225 11.617 18.2159C11.4247 17.8662 11.1683 17.7767 10.8237 17.9475C10.2067 18.2565 9.53366 18.2891 8.86859 18.3379C8.66827 18.3541 8.46795 18.3135 8.27564 18.2647C7.9391 18.1752 7.61859 18.0207 7.54648 17.6466C7.46635 17.2481 7.69071 16.9635 8.01122 16.7602C8.24359 16.6138 8.45192 16.4837 8.21154 16.1828C8.28366 15.8087 8.02725 15.5159 7.99519 15.15C7.9391 14.4994 8.23558 14.0765 8.70032 13.735C8.8766 13.6048 9.02084 13.4503 9.19712 13.3365C9.56571 13.1006 9.62981 12.7753 9.6218 12.3769C9.59776 11.0106 10.2067 10.0266 11.4407 9.47361C11.9215 9.26217 12.3462 8.99381 12.7308 8.64412C13.0192 8.4652 13.1635 8.66038 13.2756 8.87995C13.4279 9.16459 13.5321 9.47361 13.7163 9.73385C14.117 10.3031 14.6218 10.3844 15.1747 9.96156C15.4471 9.75825 15.7196 9.56307 16.0801 9.60373C16.2804 9.79891 16.0801 9.92089 15.9679 9.99408C15.7356 10.1567 15.8157 10.2868 15.9599 10.4414C15.7115 10.8724 15.2548 10.9212 14.8381 11.0188C14.0369 11.2139 13.2035 11.1082 12.3942 11.2383C12.0176 11.3034 11.633 11.3278 11.2484 11.3928C10.8638 11.4579 10.5513 11.6531 10.4471 12.0597C10.351 12.4419 10.6234 12.6615 10.8558 12.8729C11.4968 13.4503 12.2901 13.6618 13.0994 13.5886C14.2051 13.4829 15.3349 13.4097 16.4087 13.06C17.7628 12.6127 18.8926 11.9052 19.4375 10.4658C19.6859 9.81517 19.9583 9.18085 20.1506 8.50587C20.2067 8.29442 20.2228 8.00979 20.5593 8.02606C21.0721 8.36762 21.2805 8.91248 21.4808 9.46548C21.593 9.77451 21.649 10.1161 21.8654 10.3763C22.4824 10.8642 22.4744 10.8642 22.242 11.5799C22.0817 12.076 21.8013 12.4826 21.4407 12.8567C21.2564 13.0437 21 13.1982 21.0881 13.5317C20.9519 13.8569 20.4551 13.9057 20.4952 14.3612C20.2468 14.662 19.8942 14.8003 19.5817 15.0036C19.4455 14.9955 19.3894 15.0849 19.3333 15.1988C18.9087 16.0283 18.2035 16.0852 17.6186 15.3533C17.5946 15.3208 17.5705 15.2882 17.5465 15.2638C17.7548 15.5485 17.9792 15.8168 18.2676 16.0283C18.5481 16.2153 18.8526 16.1259 19.149 16.1177C19.5096 16.1096 19.8462 16.1421 20.1266 16.4024C20.2949 16.5569 20.5112 16.6138 20.7356 16.5813C22.242 16.3373 23.3558 15.394 23.3077 13.8082C23.2997 13.5886 23.2917 13.369 23.3397 13.1494C23.3958 12.9217 23.5 12.7672 23.7644 12.9217C23.8365 12.9868 23.9006 13.06 23.9728 13.125C24.5337 13.8407 24.3013 15.7518 23.2837 16.5C22.7708 16.8822 22.1859 17.1261 21.5769 17.4677C21.9615 17.7117 22.3622 17.7605 22.6987 17.6385C23.2035 17.4433 23.6683 17.1587 23.9808 16.6463C24.4936 15.8168 24.6779 14.9711 24.3093 14.044C24.2612 13.922 24.2372 13.7756 24.2452 13.6455C24.2452 13.5073 24.3413 13.4585 24.4776 13.5479Z" fill="#FCE2D8"/>
<path d="M10.6394 25.7709C10.9519 26.6492 11.7772 26.7143 12.4743 26.8688C15.1266 27.4462 17.8029 27.4543 20.4792 27.0802C21.2724 26.9664 22.0417 26.7387 22.7708 26.4053C23.2115 26.2019 23.4199 25.901 23.492 25.4131C23.5721 24.8194 23.6282 24.2014 23.8686 23.6403C23.9968 23.1848 24.3574 23.1523 24.75 23.0791C27.3164 22.6116 28.8445 23.3244 28.8445 24.9089C28.8445 25.8522 26.3333 27.0365 25.5 27.5C23.0881 28.8337 20.5 29 17.8295 29.2353C15.3391 29.4547 14.2692 29.3166 12.0897 29.2353C10.5913 29.1784 9.08493 28.9832 7.73877 28.2594C7.1939 27.9667 6.56089 27.6414 6.60896 26.7956C6.633 26.4053 6.78525 26.0881 7.03364 25.8523C7.65864 25.2749 8.39582 24.8764 9.18909 24.5917C9.6939 24.4128 10.3397 24.4795 10.5 25C10.5561 25.1789 10.4551 25.6489 10.6394 25.7709Z" fill="#A2DADD"/>
<path d="M20.5753 8.04249C20.3029 8.18074 20.359 8.48163 20.2789 8.70934C19.8862 9.81534 19.6138 10.9864 18.7805 11.881C18.1475 12.5559 17.3462 12.9463 16.4888 13.2472C15.8718 13.4586 15.2308 13.5237 14.5978 13.605C13.46 13.7595 12.3061 13.9954 11.2164 13.3366C10.968 13.1821 10.7516 13.0032 10.5593 12.7999C10.0705 12.2794 10.2228 11.6126 10.8878 11.3361C11.3446 11.149 11.8414 11.1897 12.3141 11.1002C13.1314 10.9457 13.9808 11.0596 14.7981 10.8888C15.2228 10.7994 15.6394 10.7018 15.968 10.3846C16.5689 9.83973 17.266 9.40059 17.9071 8.88012C18.0513 8.76627 18.1955 8.66055 18.3237 8.53856C19.0689 8.03436 19.0609 7.23739 19.0769 6.46481C19.085 6.25337 18.9648 6.0338 19.141 5.83862C19.2853 5.90368 19.3574 6.04193 19.3334 6.16392C19.1731 6.92022 19.75 7.22112 20.1907 7.59521C20.359 7.71719 20.4872 7.85544 20.5753 8.04249Z" fill="#FEEFE7"/>
<path d="M8.21957 16.191C8.37181 16.2235 8.58014 16.134 8.6122 16.3943C8.63623 16.5813 8.50803 16.6626 8.37181 16.744C8.28367 16.7928 8.21156 16.8659 8.1154 16.8985C7.77886 17.0205 7.63463 17.3214 7.65867 17.606C7.68271 17.9069 7.9872 18.0777 8.27566 18.1183C9.09297 18.2403 9.89425 18.1753 10.6635 17.8418C11.4407 17.5084 11.4808 17.606 11.7692 18.1671C12.0898 18.7852 12.6507 18.9966 13.2997 18.7283C13.9487 18.4518 14.4215 18.5331 14.8782 19.1023C15.2869 19.6147 15.8638 19.94 16.4968 20.0457C17.4023 20.2002 18.2516 19.7123 18.6442 18.8177C18.9888 18.0289 19.718 17.6548 20.5112 18.1346C21.1603 18.5331 21.8975 18.5737 22.6426 18.5412C22.9071 18.5331 23.0593 18.3704 23.2596 18.2403C24.2292 17.6141 24.718 16.6626 25.0144 15.5729C25.0385 15.4753 25.0705 15.3777 25.2148 15.3208C25.383 15.6705 25.2548 16.0446 25.3029 16.3943C25.351 16.6464 25.2148 16.8497 25.1026 17.0449C24.8702 17.4433 24.9664 17.9069 24.7981 18.3135C24.7901 18.1753 24.7821 18.0451 24.7741 17.8418C24.4696 18.1021 24.2051 18.346 23.9327 18.5656C23.1795 19.1755 22.3382 19.2812 21.4327 18.9722C21.0721 18.8502 20.7196 18.6876 20.351 18.5737C19.6218 18.3542 19.3253 18.4843 18.9567 19.1511C18.5882 19.818 18.1795 20.4035 17.3782 20.5906C16.2244 20.8589 14.8542 20.3547 14.2132 19.3463C14.0208 19.0454 13.8045 18.9722 13.5 19.0698C13.1795 19.1674 12.875 19.2975 12.5545 19.387C11.8013 19.5984 11.4167 19.3788 11.2244 18.6144C11.1442 18.2972 11.0321 18.1915 10.7196 18.346C10.2308 18.5819 9.70194 18.6795 9.17309 18.712C8.95675 18.7283 8.82053 18.7852 8.82854 19.0291C8.62021 18.5737 8.13143 18.6713 7.78688 18.5575C7.04168 18.3216 6.78527 17.2238 7.35418 16.8253C7.63463 16.6382 7.92309 16.4105 8.21957 16.191Z" fill="#F9CBC0"/>
<path d="M19.157 5.83044C19.2853 6.41597 19.2772 7.0015 19.157 7.58703C19.0529 8.07497 18.8365 8.47345 18.3638 8.68489C17.7468 8.96952 17.0737 8.78248 16.4327 8.90447C15.4952 8.76622 14.6218 7.67648 14.7019 6.70873C14.7179 6.55422 14.6218 6.37531 14.774 6.23706C15.0385 5.62713 15.5513 5.30184 16.1122 5.00907C16.3445 4.88709 16.4407 4.98468 16.5208 5.17985C16.8013 5.19612 16.6731 4.84643 16.8654 4.77324C16.9054 4.74071 16.9455 4.70818 16.9856 4.66752C17.266 4.64312 17.4663 4.84643 17.6827 4.96841C17.9231 5.10666 17.8429 5.35063 17.7147 5.53768C17.4984 5.84671 17.1779 5.96869 16.8253 6.02562C17.6346 5.85484 17.8349 5.6434 17.899 4.82203C17.9391 4.36662 18.1394 4.5374 18.3478 4.67565C18.7244 4.99281 18.9888 5.37503 19.157 5.83044Z" fill="#ED3E6E"/>
<path d="M23.7724 12.9381C23.4679 12.9218 23.484 13.1333 23.476 13.3447C23.4599 13.7676 23.524 14.1823 23.4199 14.6052C23.0593 16.0528 21.8734 16.5732 20.6635 16.8009C20.4792 16.8335 20.2308 16.7847 20.1506 16.6627C19.782 16.1422 19.2612 16.3374 18.7885 16.2967C18.5641 16.2805 18.3077 16.3699 18.1635 16.1016C18.7724 15.8982 19.3173 15.6217 19.5737 14.9712C19.782 14.6296 20.1667 14.5401 20.4792 14.3531C20.9199 14.1661 21.0801 14.223 21.2003 14.5971C21.2564 14.7597 21.1843 15.0118 21.4407 15.0362C21.657 15.0525 21.7933 14.8736 21.9135 14.7191C21.9615 14.654 22.0016 14.5808 22.0417 14.4995C22.1218 13.6619 22.4263 12.8893 22.7548 12.1248C22.4583 12.7185 22.4583 13.5073 21.617 13.6944C21.4247 13.7025 21.2244 13.7188 21.0801 13.548C20.8237 13.5399 20.7276 13.4829 20.9279 13.2308C21.2484 12.8324 21.649 12.5071 21.9135 12.0517C22.0897 11.7426 22.1619 11.4011 22.2901 11.0839C22.4102 10.7911 21.9936 10.6448 21.8734 10.3845C22.7067 10.7342 23.1875 11.3767 23.3958 12.2468C23.4599 12.5233 23.5881 12.7429 23.7724 12.9381Z" fill="#FEF3E7"/>
<path d="M14.774 6.229C14.4856 7.26181 15.5593 8.57925 16.3606 8.75816C16.5449 8.89641 16.8974 8.92081 16.7853 9.26237C16.6971 9.53887 16.4808 9.72591 16.1522 9.66898C15.7917 9.78284 15.4471 9.92109 15.1587 10.2057C14.718 10.6286 13.9327 10.4172 13.5561 9.79097C13.3958 9.51447 13.2596 9.2217 13.1474 8.92081C13.0673 8.70124 12.9311 8.63618 12.7308 8.64431C13.2035 8.00999 13.6923 7.37566 14.3734 6.97718C14.726 6.79014 14.5176 6.40792 14.774 6.229Z" fill="#FEEFE7"/>
<path d="M24.4776 13.5479C24.3253 13.5723 24.2853 13.6374 24.3654 13.7919C25.0224 15.0442 24.5577 16.1421 23.8526 17.1831C23.476 17.7361 22.1298 18.0207 21.5128 17.7279C21.4167 17.6873 21.3125 17.6547 21.3125 17.5327C21.3125 17.362 21.4567 17.3213 21.5769 17.2725C22.1378 17.0529 22.6827 16.809 23.1554 16.4186C23.7244 15.9388 24.125 15.3695 24.0849 14.5644C24.0609 14.0928 24.2051 13.6048 23.9808 13.1494C24.1811 13.2307 24.3814 13.3283 24.4776 13.5479Z" fill="#FEF3E7"/>
<path d="M16.2484 4.18768C15.2227 4.0657 14.6138 3.42324 14.6298 2.48802C14.6378 2.04075 14.782 1.93503 15.2308 2.04075C16 2.21966 16.5048 2.97596 16.5208 3.96811C16.4327 4.03317 16.3445 4.11449 16.2484 4.18768Z" fill="#20B39B"/>
<path d="M18.3478 4.68366C18.2756 4.78125 18.0353 4.3665 18.0513 4.81378C18.0753 5.82219 17.3622 6.34266 16.2805 6.04989C16.4728 6.0011 16.6731 5.96044 16.8574 5.91164C17.1699 5.82219 17.4744 5.71647 17.6426 5.41557C17.7628 5.21226 17.7708 4.94389 17.4664 5.00895C17.1298 5.07401 17.0817 4.8707 16.9776 4.67553C17.3782 4.40716 18.0433 4.41529 18.3478 4.68366Z" fill="#F5D5D9"/>
<path d="M16.2484 4.18767C16.1683 3.88677 16.3285 3.90303 16.5288 3.96809C16.641 4.23646 16.7532 4.50483 16.8654 4.77319C16.8734 4.88705 16.8814 5.00903 16.8734 5.12289C16.8654 5.22047 16.8814 5.34246 16.7692 5.37499C16.633 5.40752 16.5849 5.26927 16.5208 5.17981C16.5449 4.81386 16.2965 4.52922 16.2484 4.18767Z" fill="#2A8F72"/>
<path d="M17.2981 23.3639C16.4888 23.3395 15.9039 22.9816 15.4471 22.3961C15.359 22.2823 15.2067 22.1359 15.359 21.9976C15.5433 21.8268 15.6635 22.0302 15.7676 22.144C16.0321 22.4124 16.2965 22.6645 16.6571 22.7865C17.4423 23.0467 18.0994 22.8027 18.6603 22.2253C18.7564 22.1277 18.8365 22.022 18.9247 21.9244C19.0128 21.835 19.125 21.7618 19.2372 21.8594C19.3734 21.9732 19.3013 22.1196 19.2372 22.2335C18.8926 22.8109 18.3878 23.1768 17.7388 23.3313C17.5785 23.3557 17.4103 23.3557 17.2981 23.3639Z" fill="#24111C"/>
<path d="M22.282 21.4607C22.266 21.6884 22.0978 21.6152 22.0016 21.5583C21.5288 21.2818 21.0962 21.3062 20.6635 21.6477C20.5593 21.729 20.399 21.786 20.3029 21.6477C20.1987 21.5176 20.3189 21.4037 20.407 21.298C20.7516 20.8914 21.5369 20.745 21.9615 21.0215C22.1138 21.1191 22.258 21.2411 22.282 21.4607Z" fill="#2F151E"/>
<path d="M13.2356 21.0054C13.5961 21.0542 13.9407 21.1355 14.1811 21.4201C14.2532 21.5014 14.3493 21.599 14.2532 21.7292C14.1731 21.8267 14.0609 21.8105 13.9808 21.7617C13.484 21.4445 12.9872 21.4039 12.4824 21.7373C12.4263 21.7698 12.3542 21.7779 12.3061 21.7129C12.234 21.6153 12.274 21.5177 12.3301 21.4364C12.5465 21.103 12.899 21.0704 13.2356 21.0054Z" fill="#3D1B26"/>
<path d="M12.3141 21.9813C12.4744 22.0382 12.7388 21.8837 12.7949 22.1032C12.851 22.3228 12.6106 22.4285 12.4423 22.5343C12.2821 22.6237 12.1298 22.7376 11.9375 22.7213C11.7212 22.705 11.4087 22.8108 11.3606 22.4855C11.3205 22.209 11.601 22.1032 11.8173 22.0382C11.9696 21.9894 12.1459 21.9975 12.3141 21.9813Z" fill="#FBD3CA"/>
<path d="M22.1378 21.7534C22.3061 21.7697 22.4583 21.7778 22.6026 21.8103C22.8269 21.8591 23.1234 21.9242 23.0673 22.2251C23.0112 22.5097 22.7147 22.4853 22.4904 22.4772C22.3462 22.4691 22.1939 22.4121 22.0657 22.3389C21.8814 22.2414 21.609 22.1438 21.6731 21.8998C21.7131 21.6802 21.9936 21.8429 22.1378 21.7534Z" fill="#FAD0CC"/>
<path d="M21.0721 13.5481C21.2724 13.5481 21.4648 13.5481 21.6651 13.5481C22.2099 13.6619 22.2981 13.8246 22.1699 14.5646C22.0817 14.7435 21.9856 14.9225 21.8253 15.0526C21.6571 15.199 21.4728 15.3453 21.2404 15.2478C21.0321 15.1583 21.0721 14.9306 21.0801 14.7517C21.1122 14.2312 20.7516 14.3695 20.4712 14.3532C20.2308 14.0442 20.4551 13.8734 20.6715 13.7189C20.7917 13.6376 20.9439 13.605 21.0721 13.5481Z" fill="#F29B9B"/>
<path d="M16.1522 9.677C16.1843 9.66073 16.2083 9.64447 16.2404 9.6282C16.7692 9.25411 16.7692 9.25411 16.3686 8.76617C17.0256 8.55473 17.6987 8.71738 18.3638 8.68485C17.5705 9.27038 16.8894 10.0186 15.9599 10.3926C15.8077 10.3601 15.6154 10.6122 15.5192 10.3926C15.4471 10.2219 15.6875 10.1324 15.7917 10.0023C15.8878 9.8803 16.0881 9.84777 16.1522 9.677Z" fill="#F9D8C8"/>
<path d="M10.9199 15.5811C10.8237 15.695 10.7356 15.817 10.6234 15.9146C10.343 16.1667 10.1026 16.1179 9.97437 15.76C9.8702 15.4673 9.76604 15.2233 9.43751 15.1013C9.12501 14.9875 9.34937 14.8086 9.47758 14.7028C9.84617 14.4182 10.5513 14.4589 10.9279 14.7679C11.1683 15.0444 11.1442 15.3128 10.9199 15.5811Z" fill="#F2959D"/>
<path d="M10.9199 15.581C10.9199 15.3126 10.9279 15.0442 10.9279 14.7759C11.032 14.6295 11.1122 14.4181 11.3445 14.5319C11.625 14.6702 11.9375 14.7596 12.1538 14.9873C12.226 15.0605 12.1298 15.15 12.0657 15.1906C11.7292 15.4509 11.4006 15.7518 10.9199 15.581Z" fill="#FEEFE7"/>
<path d="M19.5737 14.9711C19.5657 14.9874 19.5497 14.9955 19.5497 15.0118C19.2131 16.0121 19.4615 15.9552 18.1635 16.1015C17.7388 15.8169 17.4022 15.3452 17.25 14.7922C17.5385 14.8817 17.6346 15.1257 17.7628 15.3046C17.9792 15.6217 18.2356 15.76 18.6442 15.7031C19.0369 15.6461 19.1651 15.4266 19.2612 15.0931C19.3413 14.7922 19.3654 14.8004 19.5737 14.9711Z" fill="#BA5C7B"/>
<path d="M13.3718 14.5971C13.3798 14.3857 13.1875 14.4101 13.0753 14.3287C12.9872 14.2637 12.851 14.2149 12.9231 14.0685C12.9792 13.9546 13.0913 13.9709 13.1795 14.0278C13.4759 14.223 13.7644 14.2067 14.0609 14.0278C14.1651 13.9628 14.2933 13.9221 14.3413 14.0929C14.3814 14.2149 14.2852 14.2962 14.1891 14.3125C13.7564 14.4019 13.5721 14.7191 13.4759 15.1176C13.4519 15.2233 13.4359 15.3941 13.2756 15.3371C13.1074 15.2883 13.2035 15.142 13.2356 15.0362C13.2676 14.8899 13.3237 14.7435 13.3718 14.5971Z" fill="#322625"/>
<path d="M16.5369 11.6287C16.8173 11.6775 17.0417 11.8238 17.0176 12.1166C16.9856 12.45 16.7372 12.694 16.4247 12.6859C16.1683 12.6777 16.024 12.4175 16.0321 12.1329C16.0401 11.8076 16.2404 11.6612 16.5369 11.6287Z" fill="#E85678"/>
<path d="M22.1699 14.5644C22.1859 14.1334 22.1699 13.7187 21.6651 13.5479C22.0176 13.4503 22.2019 13.1901 22.3141 12.8566C22.4503 12.4663 22.5305 12.0515 22.7869 11.6287C22.9471 12.019 22.9071 12.3606 22.7468 12.6289C22.4103 13.1819 22.242 13.7512 22.258 14.3937C22.266 14.4506 22.2019 14.5075 22.1699 14.5644Z" fill="#FCE2D8"/>
</svg>
